<mxfile host="app.diagrams.net" modified="2024-02-13T13:10:47.538Z" agent="Mozilla/5.0 (Windows NT 10.0; Win64; x64) AppleWebKit/537.36 (KHTML, like Gecko) Chrome/121.0.0.0 Safari/537.36" etag="2x2VGpuaroLIA8zL3ZuM" version="23.1.4" type="github">
  <diagram name="Page-1" id="OU1NxWpHU9Om3I3ePy12">
    <mxGraphModel dx="512" dy="266" grid="1" gridSize="10" guides="1" tooltips="1" connect="1" arrows="1" fold="1" page="1" pageScale="1" pageWidth="827" pageHeight="1169" math="0" shadow="0">
      <root>
        <mxCell id="0" />
        <mxCell id="1" parent="0" />
        <mxCell id="Kobw5IPsUhzuhovQnOnC-1" value="Client: Addpgn" style="rounded=1;whiteSpace=wrap;html=1;" vertex="1" parent="1">
          <mxGeometry x="280" y="110" width="120" height="60" as="geometry" />
        </mxCell>
        <mxCell id="Kobw5IPsUhzuhovQnOnC-2" value="" style="endArrow=classic;html=1;rounded=0;exitX=0.5;exitY=1;exitDx=0;exitDy=0;" edge="1" parent="1" source="Kobw5IPsUhzuhovQnOnC-1">
          <mxGeometry width="50" height="50" relative="1" as="geometry">
            <mxPoint x="370" y="240" as="sourcePoint" />
            <mxPoint x="340" y="240" as="targetPoint" />
          </mxGeometry>
        </mxCell>
        <mxCell id="Kobw5IPsUhzuhovQnOnC-8" value="&lt;font style=&quot;font-size: 8px;&quot;&gt;adds one or several specific PGN to the multicast group data if it is not&lt;br&gt;already existing&lt;span style=&quot;&quot;&gt;&lt;span style=&quot;white-space: pre;&quot;&gt;&amp;nbsp;&amp;nbsp;&amp;nbsp;&amp;nbsp;&lt;/span&gt;&lt;/span&gt;&lt;/font&gt;" style="text;strokeColor=none;align=center;fillColor=none;html=1;verticalAlign=middle;whiteSpace=wrap;rounded=0;" vertex="1" parent="1">
          <mxGeometry x="350" y="190" width="170" height="30" as="geometry" />
        </mxCell>
        <mxCell id="Kobw5IPsUhzuhovQnOnC-14" style="edgeStyle=orthogonalEdgeStyle;rounded=0;orthogonalLoop=1;jettySize=auto;html=1;exitX=0.55;exitY=0.95;exitDx=0;exitDy=0;exitPerimeter=0;" edge="1" parent="1" source="Kobw5IPsUhzuhovQnOnC-9">
          <mxGeometry relative="1" as="geometry">
            <mxPoint x="346.0645161290322" y="420.8602019279234" as="targetPoint" />
          </mxGeometry>
        </mxCell>
        <mxCell id="Kobw5IPsUhzuhovQnOnC-9" value="&lt;font style=&quot;font-size: 10px;&quot;&gt;added to the group&lt;/font&gt;" style="ellipse;shape=cloud;whiteSpace=wrap;html=1;" vertex="1" parent="1">
          <mxGeometry x="280" y="240" width="120" height="80" as="geometry" />
        </mxCell>
        <mxCell id="Kobw5IPsUhzuhovQnOnC-10" value="&lt;font style=&quot;font-size: 9px;&quot;&gt;last received content of the PGN is sent within the next multicast&lt;br&gt;message&lt;/font&gt;" style="text;strokeColor=none;align=center;fillColor=none;html=1;verticalAlign=middle;whiteSpace=wrap;rounded=0;" vertex="1" parent="1">
          <mxGeometry x="340" y="340" width="160" height="30" as="geometry" />
        </mxCell>
        <mxCell id="Kobw5IPsUhzuhovQnOnC-12" style="edgeStyle=orthogonalEdgeStyle;rounded=0;orthogonalLoop=1;jettySize=auto;html=1;exitX=0;exitY=0.5;exitDx=0;exitDy=0;entryX=0.07;entryY=0.4;entryDx=0;entryDy=0;entryPerimeter=0;fillColor=#f5f5f5;strokeColor=#666666;gradientColor=#b3b3b3;" edge="1" parent="1" source="Kobw5IPsUhzuhovQnOnC-1" target="Kobw5IPsUhzuhovQnOnC-9">
          <mxGeometry relative="1" as="geometry">
            <Array as="points">
              <mxPoint x="260" y="140" />
              <mxPoint x="260" y="272" />
            </Array>
          </mxGeometry>
        </mxCell>
        <mxCell id="Kobw5IPsUhzuhovQnOnC-13" value="&lt;font style=&quot;font-size: 8px;&quot;&gt;client registers again for an already registered PGN with a different&lt;br&gt;UpdatePolicy&lt;/font&gt;" style="text;whiteSpace=wrap;html=1;" vertex="1" parent="1">
          <mxGeometry x="140" y="170" width="150" height="50" as="geometry" />
        </mxCell>
        <mxCell id="Kobw5IPsUhzuhovQnOnC-15" value="&lt;font style=&quot;font-size: 9px;&quot;&gt;the new (latest) update policy will apply&lt;/font&gt;" style="text;whiteSpace=wrap;html=1;" vertex="1" parent="1">
          <mxGeometry x="130" y="270" width="160" height="50" as="geometry" />
        </mxCell>
      </root>
    </mxGraphModel>
  </diagram>
</mxfile>
